# xmcd
#
# Track frame offsets: 
#        151
#        9450
#        19391
#        33736
#        46415
#        57060
#        66763
#        78425
#        87538
#        96946
#        109809
#        123670
#        133990
#        142271
#
# Disc length: 2024 seconds
#
# Revision: 0
# Processed by: cddbd v1.4PL0 Copyright (c) Steve Scherf et al.
# Submitted via: ExactAudioCopy v0.90b4
#
DISCID=cf07e60e
DTITLE=The Ranch Girls and The Ragtime Wranglers - Rhythm on the "Ranch"
DYEAR=1994
DGENRE=Folk
TTITLE0=Gotta git goin'
TTITLE1=Baby of mine
TTITLE2=I'm done, I'm through
TTITLE3=Go away don't bother me
TTITLE4=Hi de ank tum
TTITLE5=Hey, doll baby
TTITLE6=I gotta know
TTITLE7=Hot rod
TTITLE8=Peepin' eyes
TTITLE9=Hillbilly gal
TTITLE10=Crazy
TTITLE11=Foggy mountain top
TTITLE12=Wildwood flower
TTITLE13=Fiddle diddle boogie
EXTD=
EXTT0=
EXTT1=
EXTT2=
EXTT3=
EXTT4=
EXTT5=
EXTT6=
EXTT7=
EXTT8=
EXTT9=
EXTT10=
EXTT11=
EXTT12=
EXTT13=
PLAYORDER=
